<svg version="1.1" viewBox="0 0 177.85 177.83" xmlns="http://www.w3.org/2000/svg">
    <g transform="translate(-36.15 -12.068)">
        <path d="m110.69 188.91c-15.592-2.28-33.53-11.197-45.926-22.828-9.5559-8.967-15.521-17.114-20.672-28.235-5.1504-11.118-7.1093-19.173-7.7998-32.072-1.4301-26.716 7.874-50.137 27.37-68.897 12.456-11.986 26.685-19.45 43.82-22.987 54.573-11.264 106.52 31.218 106.52 87.112 0 54.536-48.617 95.904-103.31 87.907zm29.759-81.875c35.785-35.77 37.95-38.139 37.95-41.51 0-4.9051-4.0142-8.9211-8.9171-8.9211-3.3573 0-5.5743 2.0019-36.935 33.352l-33.363 33.352-10.657-14.402c-11.206-15.145-14.136-17.586-19.648-16.376-3.6994 0.81252-5.8792 3.9739-5.8792 8.5265 0 3.0897 2.0914 6.3974 14.557 23.023 8.0063 10.678 15.544 19.982 16.75 20.675 5.191 2.9823 6.4766 1.9314 46.143-37.719z" fill="#008628"/>
    </g>
</svg>