<svg version="1.1" viewBox="0 0 167.07 167.42" xmlns="http://www.w3.org/2000/svg">
    <g transform="translate(-64.539 -.24845)">
        <path d="m131 166.63c-26.003-6.0647-46.906-22.296-58.391-45.341-6.2178-12.477-8.0407-20.788-8.0694-36.791-0.032472-18.059 2.9889-29.585 11.606-44.277 5.018-8.5557 20.827-23.869 29.855-28.917 26.362-14.743 57.638-14.743 84 0 9.0273 5.0486 24.837 20.361 29.855 28.917 4.0415 6.8908 7.5084 15.286 9.8694 23.898 2.7166 9.9098 2.4596 31.944-0.49191 42.17-7.9855 27.669-27.99 48.61-55.232 57.817-8.6055 2.9085-10.818 3.2389-23.5 3.5089-8.911 0.18973-15.999-0.1682-19.5-0.98467zm4.9274-35.268c1.1399-1.4492 2.0726-3.4742 2.0726-4.5 0-1.7018 0.91973-1.8651 10.5-1.8651 10.305 0 10.5 0.043 10.5 2.3114 0 6.2883 8.9597 9.0979 12.927 4.0537 1.1399-1.4492 2.0726-3.4742 2.0726-4.5 0-1.4057 0.73897-1.8651 3-1.8651 2.6667 0 3-0.33333 3-3v-3h-54.154l-2.9231-2.9231c-2.1412-2.1412-2.9231-3.8799-2.9231-6.5v-3.5769l25.75-6e-3c14.162-3e-3 27.345-0.44866 29.294-0.99022 6.8252-1.8961 9.1259-5.7539 16.254-27.254l6.5475-19.75h-38.923c-35.824 0-38.923-0.13409-38.923-1.6843 0-3.335-4.2089-10.282-7.439-12.278-2.1961-1.3573-5.0108-2.0377-8.429-2.0377-5.0355 0-5.132 0.056381-5.132 3 0 2.8414 0.21492 3 4.0657 3 5.1048 0 7.5044 1.268 9.4239 4.98 1.2438 2.4052 1.5104 7.9653 1.5104 31.502 0 31.459 0.31648 33.474 5.9081 37.608 2.1809 1.6124 3.0919 3.1145 3.0919 5.0979 0 6.5164 8.8404 9.3729 12.927 4.1771z" fill="#fbc756"/>
        <path d="m125 132c-1.1-1.1-2-3.2654-2-4.8119 0-1.9834-0.91104-3.4855-3.0919-5.0979-5.5916-4.134-5.9081-6.1486-5.9081-37.608 0-23.537-0.26657-29.097-1.5104-31.502-1.9195-3.7119-4.3191-4.98-9.4239-4.98-3.8508 0-4.0657-0.15858-4.0657-3 0-2.9436 0.09645-3 5.132-3 3.4183 0 6.233 0.68044 8.429 2.0377 3.2301 1.9963 7.439 8.9431 7.439 12.278 0 1.5502 3.0987 1.6843 38.923 1.6843h38.923l-6.5475 19.75c-7.1277 21.5-9.4284 25.358-16.254 27.254-1.9494 0.54156-15.132 0.98716-29.294 0.99022l-25.75 0.00558v3.5769c0 2.6201 0.78191 4.3588 2.9231 6.5l2.9231 2.9231h54.154v3c0 2.6667-0.33333 3-3 3-2.261 0-3 0.45943-3 1.8651 0 1.0258-0.93266 3.0508-2.0726 4.5-3.9677 5.0442-12.927 2.2346-12.927-4.0537 0-2.2685-0.19508-2.3114-10.5-2.3114-9.5803 0-10.5 0.16337-10.5 1.8651 0 1.0258-0.93266 3.0508-2.0726 4.5-2.597 3.3015-7.9498 3.6125-10.927 0.63486z" fill="#1aa690"/>
    </g>
</svg>