<svg version="1.1" viewBox="0 0 192.81 193.31" xmlns="http://www.w3.org/2000/svg"><g transform="translate(-83.334 -74.382)"><path d="m94.594 266.97c-4.2058-1.2745-9.472-6.8045-10.652-11.185-1.8649-6.9257 1.7524-14.92 8.3962-18.555 2.9267-1.6014 9.4423-1.73 87.662-1.73 83.44 0 84.544 0.0258 87.997 2.0541 10.857 6.3782 10.857 21.514 0 27.892-3.4451 2.0238-4.7264 2.0566-86.997 2.2295-45.925 0.0965-84.808-0.22093-86.406-0.70532zm-2.6093-81.822c-4.3682-2.3212-7.6138-6.9952-8.5-12.241-0.94528-5.595 2.6555-12.57 8.0743-15.641l3.9413-2.2336 168.19-0.0329 4.302 2.2749c10.965 5.7983 10.766 22.818-0.32744 28.082-3.1264 1.4836-11.646 1.6429-87.827 1.6429-80.19 0-84.537-0.09163-87.849-1.8516zm0.5156-80.143c-5.8185-2.8998-8.9286-7.9869-8.9286-14.604 0-5.9419 1.9151-9.4042 7.1879-12.996 2.8089-1.9131 4.9243-2.1433 24.408-2.656 11.733-0.30874 50.191-0.4515 85.463-0.31726 61.715 0.23488 64.257 0.31814 67.497 2.2101 5.2026 3.0385 7.873 7.7389 7.873 13.858 0 6.3476-2.762 10.952-8.5296 14.218l-3.9704 2.2488-83.5 0.01566c-81.422 0.0153-83.6-0.034-87.5-1.9778z" fill="#040404"></path></g></svg>