<svg style="width: 45px !important;" version="1.1" viewBox="0 0 463 328.94" xmlns="http://www.w3.org/2000/svg">
<g transform="translate(-228.5 -103.98)">
<path d="m260.32 431.95c-11.501-2.2733-22.968-11.437-28.582-22.841l-3.2349-6.571v-268.04l2.6959-5.7526c5.5323-11.805 17.87-21.349 30.691-23.742 7.283-1.3592 387.31-1.3711 395.61-0.0123 13.104 2.1433 25.631 11.649 31.304 23.754l2.6959 5.7526v268.04l-3.2132 6.5268c-5.7646 11.709-16.511 20.136-29.086 22.806-6.3236 1.3428-392.1 1.4194-398.88 0.0793zm395.14-32.575c4.5171-1.7334 4.5448-2.1954 4.5448-75.829v-69.55h-400v69.55c0 59.426 0.21527 69.966 1.479 72.41 0.81343 1.573 2.0509 3.0901 2.75 3.3714 1.8408 0.74062 389.3 0.78826 391.23 0.0481zm-177-56.833c-2.9759-2.9759-3.1299-5.8701-0.45455-8.5454 1.958-1.958 3.3333-2 65.443-2h63.443l1.5567 2.2225c2.2872 3.2654 1.904 6.3591-1.0782 8.7049-2.6012 2.0461-3.4264 2.0726-64.545 2.0726h-61.911zm181.55-178.61c0-20.282-0.40884-22.962-3.9133-25.652-2.3155-1.7778-389.86-1.7778-392.17 0-3.5045 2.6907-3.9133 5.3707-3.9133 25.652v20.066h400z" fill="#010101"/>
</g>
</svg>